# xmcd
#
# Track frame offsets: 
#        150
#        17509
#        33436
#        50184
#        67537
#        83464
#
# Disc length: 1336 seconds
#
# Revision: 0
# Processed by: cddbd v1.5.2PL0 Copyright (c) Steve Scherf et al.
# Submitted via: ExactAudioCopyFreeDBPlugin 1.0
#
DISCID=3a053606
DTITLE=藏合紗恵子 featuring 流田Project / 「トリアージX」OP:triage
DYEAR=2015
DGENRE=Anime
TTITLE0=triage
TTITLE1=キラキラ
TTITLE2=流田Project / triage（CC Version）
TTITLE3=triage -Instrumental-
TTITLE4=キラキラ -Instrumental-
TTITLE5=流田Project / triage（CC Version） -Instrumental-
EXTD=
EXTT0=
EXTT1=
EXTT2=
EXTT3=
EXTT4=
EXTT5=
PLAYORDER=
